# xmcd
#
# Track frame offsets: 
#        150
#        16952
#        36177
#        48527
#        60825
#        74645
#        86960
#        99707
#        113402
#        134332
#
# Disc length: 2021 seconds
#
# Revision: 2
# Processed by: cddbd v1.4PL0 Copyright (c) Steve Scherf et al.
# Submitted via: ExactAudioCopy v0.90b3
#
DISCID=8607e30a
DTITLE=Kenny Rogers - Christmas Greetings
DYEAR=1900
DGENRE=Country
TTITLE0=Christmas Everyday
TTITLE1=Kentucky Homemade Christmas
TTITLE2=Carol Of The Bells
TTITLE3=Kids
TTITLE4=Sweet Little Jesus Boy
TTITLE5=Christmas Is My Favorite Time Of The Year
TTITLE6=White Christmas
TTITLE7=My Favorite Things
TTITLE8=O Holy Night
TTITLE9=When A Child Is Born
EXTD=
EXTT0=
EXTT1=
EXTT2=
EXTT3=
EXTT4=
EXTT5=
EXTT6=
EXTT7=
EXTT8=
EXTT9=
PLAYORDER=
